<svg width="124" height="41" viewBox="0 0 124 41" fill="none" xmlns="http://www.w3.org/2000/svg">
<path d="M4.3213 30.2465V16.7523C4.32027 16.5347 4.37736 16.3208 4.48672 16.1325C4.59609 15.9442 4.75378 15.7882 4.94362 15.6807C5.13345 15.5732 5.34859 15.5179 5.56694 15.5206C5.78529 15.5233 5.99899 15.5838 6.18609 15.696L11.8656 19.0897C11.9216 19.1219 11.968 19.1683 12.0002 19.2242C12.0323 19.2801 12.0491 19.3434 12.0487 19.4079V23.2639C12.049 23.3289 12.0322 23.3928 12.0001 23.4494C11.968 23.5059 11.9216 23.5531 11.8656 23.5863L6.59056 26.7467C6.55278 26.7699 6.52159 26.8024 6.49998 26.841C6.47836 26.8796 6.46704 26.9231 6.46709 26.9673V30.2465C6.46709 30.53 6.35405 30.8019 6.15285 31.0024C5.95164 31.2028 5.67874 31.3155 5.3942 31.3155C5.10965 31.3155 4.83675 31.2028 4.63555 31.0024C4.43434 30.8019 4.3213 30.53 4.3213 30.2465Z" fill="#E07525"/>
<path d="M28.0358 16.7944V23.6921C28.0356 23.8344 27.9982 23.9741 27.9273 24.0976C27.8564 24.2211 27.7544 24.324 27.6313 24.3963L27.2439 24.6296L19.2824 20.0905L10.8057 15.2715C10.6636 15.1935 10.5416 15.0839 10.4492 14.9512C10.3567 14.8184 10.2963 14.6662 10.2727 14.5063C10.2491 14.3465 10.2629 14.1834 10.313 14.0297C10.3632 13.876 10.4483 13.736 10.5618 13.6206C10.6753 13.5052 10.814 13.4174 10.9671 13.3643C11.1202 13.3111 11.2836 13.294 11.4445 13.3142C11.6054 13.3344 11.7594 13.3914 11.8946 13.4807C12.0297 13.5701 12.1422 13.6893 12.2234 13.8292L12.5214 14.2534C12.5407 14.2794 12.5654 14.3009 12.5938 14.3165C12.6222 14.3321 12.6536 14.3414 12.6859 14.3438C12.7182 14.3462 12.7507 14.3417 12.7811 14.3305C12.8115 14.3192 12.8391 14.3017 12.862 14.2789L13.7646 13.3668C13.8108 13.3205 13.8474 13.2655 13.8722 13.2051C13.8971 13.1447 13.9097 13.08 13.9094 13.0147V9.93918C13.9086 9.743 13.9602 9.55013 14.0588 9.38033C14.1574 9.21052 14.2995 9.06987 14.4706 8.97277C14.6417 8.87567 14.8356 8.8256 15.0325 8.8277C15.2294 8.8298 15.4221 8.88398 15.5911 8.9847L27.6313 16.0902C27.7549 16.1618 27.8574 16.2646 27.9284 16.3883C27.9994 16.5119 28.0365 16.652 28.0358 16.7944Z" fill="#E07525"/>
<path d="M27.248 24.6294L20.8831 28.3964C20.7093 28.4953 20.5127 28.5474 20.3126 28.5474C20.1124 28.5474 19.9158 28.4953 19.742 28.3964L13.9007 25.1087C13.7444 25.018 13.6146 24.888 13.5244 24.7317C13.4342 24.5754 13.3867 24.3982 13.3867 24.2179C13.3867 24.0376 13.4342 23.8604 13.5244 23.7041C13.6146 23.5478 13.7444 23.4178 13.9007 23.3271L19.3035 20.0903L27.248 24.6294Z" fill="#EBB41E"/>
<path d="M6.35226 13.0024C7.50913 13.0024 8.44696 12.0679 8.44696 10.9152C8.44696 9.76256 7.50913 8.82812 6.35226 8.82812C5.1954 8.82812 4.25757 9.76256 4.25757 10.9152C4.25757 12.0679 5.1954 13.0024 6.35226 13.0024Z" fill="#DF8C7E"/>
<path d="M6.35226 36.7577C7.50913 36.7577 8.44696 35.8233 8.44696 34.6706C8.44696 33.5179 7.50913 32.5835 6.35226 32.5835C5.1954 32.5835 4.25757 33.5179 4.25757 34.6706C4.25757 35.8233 5.1954 36.7577 6.35226 36.7577Z" fill="#DF8C7E"/>
<path d="M10.1669 30.3226C11.2038 30.3226 12.0444 29.485 12.0444 28.4518C12.0444 27.4186 11.2038 26.5811 10.1669 26.5811C9.12992 26.5811 8.28931 27.4186 8.28931 28.4518C8.28931 29.485 9.12992 30.3226 10.1669 30.3226Z" fill="#DF8C7E"/>
<path d="M11.1803 34.5352C11.794 34.5352 12.2915 34.0395 12.2915 33.428C12.2915 32.8165 11.794 32.3208 11.1803 32.3208C10.5666 32.3208 10.0691 32.8165 10.0691 33.428C10.0691 34.0395 10.5666 34.5352 11.1803 34.5352Z" fill="#DF8C7E"/>
<path d="M10.5373 10.3632C11.6942 10.3632 12.632 9.42877 12.632 8.27608C12.632 7.1234 11.6942 6.18896 10.5373 6.18896C9.38045 6.18896 8.44263 7.1234 8.44263 8.27608C8.44263 9.42877 9.38045 10.3632 10.5373 10.3632Z" fill="#DF8C7E"/>
<path d="M6.14351 6.34627C6.72665 6.34627 7.19937 5.87526 7.19937 5.29423C7.19937 4.7132 6.72665 4.24219 6.14351 4.24219C5.56037 4.24219 5.08765 4.7132 5.08765 5.29423C5.08765 5.87526 5.56037 6.34627 6.14351 6.34627Z" fill="#DF8C7E"/>
<path d="M39.4799 13.354C40.3944 12.8908 41.4088 12.6578 42.4346 12.6752C43.6455 12.6606 44.8366 12.9818 45.8749 13.6028C46.9132 14.2238 47.7577 15.1203 48.3142 16.1919C48.9213 17.3722 49.2255 18.6839 49.1998 20.0098C49.2233 21.3505 48.9194 22.6768 48.3142 23.8744C47.7605 24.9669 46.9148 25.8858 45.8704 26.53C44.8371 27.1612 43.6466 27.4905 42.4346 27.4802C41.4196 27.5002 40.4152 27.2715 39.5097 26.8142C38.7058 26.4141 37.994 25.8522 37.4192 25.164V34.0724H34.439V12.9085H37.4192V15.0296C37.9715 14.3244 38.6757 13.7517 39.4799 13.354ZM45.5553 17.4518C45.1786 16.7673 44.6185 16.2005 43.9375 15.8144C43.2771 15.4507 42.5334 15.2636 41.7789 15.2714C41.031 15.2713 40.2964 15.4689 39.6502 15.8441C38.9679 16.2399 38.4082 16.8152 38.0323 17.507C37.6084 18.2997 37.3972 19.1882 37.4192 20.0862C37.3982 20.9881 37.6093 21.8804 38.0323 22.6781C38.3023 23.1817 38.6715 23.6258 39.1178 23.9838C39.5641 24.3418 40.0784 24.6064 40.6297 24.7617C41.1811 24.9169 41.7583 24.9597 42.3267 24.8874C42.895 24.8152 43.4429 24.6293 43.9375 24.341C44.6232 23.9346 45.1831 23.3474 45.5553 22.6442C45.978 21.8433 46.189 20.9484 46.1684 20.0438C46.196 19.1411 45.9846 18.2472 45.5553 17.4518Z" fill="white"/>
<path d="M52.0608 16.1923C52.6217 15.1215 53.469 14.2262 54.509 13.6055C55.549 12.9848 56.741 12.663 57.9532 12.6756C58.9867 12.648 60.0108 12.8769 60.9335 13.3416C61.7223 13.7368 62.4142 14.3002 62.96 14.9918V12.9089H65.9658V27.2557H62.96V25.1346C62.4118 25.8509 61.7052 26.4316 60.8951 26.8315C59.893 27.3228 58.7831 27.5554 57.6672 27.508C56.5514 27.4606 55.4653 27.1346 54.5089 26.56C53.4664 25.9135 52.6213 24.9951 52.0651 23.9044C51.4504 22.7096 51.1404 21.3823 51.1625 20.0399C51.1319 18.7024 51.4409 17.3789 52.0608 16.1923ZM62.3299 17.4904C61.956 16.8 61.3994 16.2248 60.7206 15.8274C60.075 15.4508 59.34 15.253 58.5918 15.2548C57.8261 15.2482 57.0729 15.4492 56.413 15.8362C55.753 16.2233 55.2111 16.7819 54.8452 17.4522C54.4202 18.2324 54.2074 19.1099 54.2279 19.9974C54.2067 20.9026 54.4193 21.798 54.8452 22.5979C55.2162 23.302 55.7763 23.8895 56.4631 24.2947C57.1065 24.678 57.8422 24.8803 58.5918 24.8801C59.34 24.8818 60.075 24.6841 60.7206 24.3074C61.4028 23.9087 61.9601 23.3284 62.3299 22.6318C62.7529 21.8341 62.964 20.9418 62.943 20.0399C62.9599 19.1519 62.7489 18.2743 62.3299 17.4904Z" fill="white"/>
<path d="M72.846 7.99219V27.2556H69.8657V7.99219H72.846Z" fill="white"/>
<path d="M89.7228 12.9087L80.8927 33.9962H77.8103L80.7352 27.018L75.0642 12.9087H78.3851L82.434 23.8449L86.6404 12.9087H89.7228Z" fill="white"/>
<path d="M102.274 13.3796C103.171 13.845 103.904 14.5715 104.377 15.4625C104.909 16.4906 105.17 17.6365 105.135 18.7925V27.2767H102.18V19.2379C102.18 17.9512 101.858 16.9613 101.214 16.2685C100.872 15.921 100.459 15.6499 100.004 15.4729C99.5494 15.296 99.0619 15.2172 98.5741 15.2419C98.0844 15.2181 97.5952 15.2972 97.1383 15.4741C96.6813 15.6509 96.2668 15.9216 95.9216 16.2685C95.2688 16.9557 94.9424 17.9455 94.9424 19.2379V27.2555H91.9622V12.9087H94.9424V14.5504C95.4462 13.9489 96.087 13.4762 96.8115 13.1717C97.5726 12.8405 98.3949 12.6714 99.2255 12.6754C100.284 12.656 101.332 12.8979 102.274 13.3796Z" fill="white"/>
<path d="M115.089 19.993L119.742 27.2555H116.371L113.25 22.3856L110.321 27.2555H107.213L111.862 20.2009L107.225 12.9087H110.597L113.705 17.7786L116.63 12.9087H119.742L115.089 19.993Z" fill="white"/>
</svg>
