<svg width="332" height="390" viewBox="0 0 332 390" fill="none" xmlns="http://www.w3.org/2000/svg">
<circle cx="9" cy="9" r="9" transform="matrix(-1 0 0 1 283 41)" fill="#FFECE0"/>
<circle cx="9" cy="9" r="9" transform="matrix(-1 0 0 1 160 269)" fill="#FEF6F0"/>
<circle cx="19" cy="19" r="19" transform="matrix(-1 0 0 1 275 78)" fill="#FDF2EB"/>
<circle cx="11.5" cy="11.5" r="11.5" transform="matrix(-1 0 0 1 315 76)" fill="#FDF2EB"/>
<circle cx="15.5" cy="15.5" r="15.5" transform="matrix(-1 0 0 1 313 196)" fill="#FFECE0"/>
<circle cx="21.5" cy="21.5" r="21.5" transform="matrix(-1 0 0 1 263 223)" fill="#FFECE0"/>
<circle cx="11.5" cy="11.5" r="11.5" transform="matrix(-1 0 0 1 220 62)" fill="#FDF2EB"/>
<circle cx="28.5" cy="28.5" r="28.5" transform="matrix(-1 0 0 1 332 119)" fill="#FEF6F0"/>
<circle cx="28.5" cy="28.5" r="28.5" transform="matrix(-1 0 0 1 234 278)" fill="#FDF2EB"/>
<circle cx="6.5" cy="6.5" r="6.5" transform="matrix(-1 0 0 1 317 35)" fill="#FDF2EB"/>
<circle cx="6.5" cy="6.5" r="6.5" transform="matrix(-1 0 0 1 332 0)" fill="#FFECE0"/>
<circle cx="45" cy="45" r="45" transform="matrix(-1 0 0 1 233 97)" fill="#FFECE0"/>
<circle cx="45" cy="45" r="45" transform="matrix(-1 0 0 1 166 300)" fill="#FDF2EB"/>
<circle cx="13" cy="13" r="13" transform="matrix(-1 0 0 1 147 179)" fill="#FDF2EB"/>
<circle cx="13" cy="13" r="13" transform="matrix(-1 0 0 1 26 179)" fill="#FDF2EB"/>
<circle cx="13" cy="13" r="13" transform="matrix(-1 0 0 1 104 259)" fill="#FEF6F0"/>
<circle cx="13" cy="13" r="13" transform="matrix(-1 0 0 1 269 174)" fill="#FDF2EB"/>
<circle cx="11" cy="11" r="11" transform="matrix(-1 0 0 1 199 194)" fill="#FFECE0"/>
<circle cx="11" cy="11" r="11" transform="matrix(-1 0 0 1 193 241)" fill="#FDF2EB"/>
<circle cx="23" cy="23" r="23" transform="matrix(-1 0 0 1 82 200)" fill="#FFECE0"/>
<circle cx="23" cy="23" r="23" transform="matrix(-1 0 0 1 59 259)" fill="#FDF2EB"/>
<circle cx="11.5" cy="11.5" r="11.5" transform="matrix(-1 0 0 1 63 160)" fill="#FEF6F0"/>
<circle cx="13" cy="13" r="13" transform="matrix(-1 0 0 1 132 106)" fill="#FFECE0"/>
<circle cx="9" cy="9" r="9" transform="matrix(-1 0 0 1 82 88)" fill="#FDF2EB"/>
<circle cx="4" cy="4" r="4" transform="matrix(-1 0 0 1 63 124)" fill="#FEF6F0"/>
<circle cx="4" cy="4" r="4" transform="matrix(-1 0 0 1 114 233)" fill="#FEF6F0"/>
<circle cx="4" cy="4" r="4" transform="matrix(-1 0 0 1 59 327)" fill="#FDF2EB"/>
<circle cx="7.5" cy="7.5" r="7.5" transform="matrix(-1 0 0 1 106 153)" fill="#FFECE0"/>
<circle cx="7.5" cy="7.5" r="7.5" transform="matrix(-1 0 0 1 158 223)" fill="#FDF2EB"/>
</svg>
